<svg xmlns="http://www.w3.org/2000/svg" xmlns:xlink="http://www.w3.org/1999/xlink" width="1200" height="1600" viewBox="0 0 1200 1600" id="anchor"><defs><path id="a" d="M156.532,23.95 C153.092,16.31 148.275,8.68 142.312,1.27 C141.624,0.37 140.477,0.14 139.56,0.82 C102.634,33.15 92.426,42.82 50.085,62.44 C49.856,62.22 49.397,62.22 48.938,62.44 C36.095,67.16 12.013,73.45 2.1505,80.18 C0.3157,81.75 -1.5191,92.05 2.1505,93.85 C15.912,101.26 75.146,107.58 93.036,99.05 C105.879,92.98 117.772,83.96 128.78,72.95 C134.514,67.34 141.624,61.05 142.312,73.18 L142.312,97.25 C142.312,98.15 143.23,99.05 144.147,99.05 L151.486,99.05 C152.633,99.05 153.321,98.15 153.321,97.25 L153.321,80.18 C159.629,75.33 168.229,50.89 156.532,23.95 Z"></path><path id="c" d="M5.884,22.76 C9.363,15.38 14.234,8 20.264,0.84 C20.96,-0.03 22.12,-0.25 23.047,0.4 C60.389,31.66 70.712,41.01 113.53,59.97 C113.762,59.76 114.226,59.76 114.69,59.97 C127.678,64.53 152.031,70.61 162.004,77.12 C163.86,78.64 165.715,88.59 162.004,90.33 C148.088,97.49 88.187,103.6 70.096,95.35 C57.108,89.49 45.081,80.77 33.948,70.13 C28.15,64.71 20.96,58.63 20.264,70.35 L20.264,93.62 C20.264,94.49 19.337,95.35 18.409,95.35 L10.987,95.35 C9.827,95.35 9.131,94.49 9.131,93.62 L9.131,77.12 C2.753,72.43 -5.944,48.81 5.884,22.76 Z"></path><path id="e" d="M0.601,0.109 C0.548,1.04 0.521,1.978 0.521,2.922 L0.521,20.761 C0.521,47.551 22.238,69.268 49.028,69.268 C75.817,69.268 97.534,47.551 97.534,20.761 L97.534,2.922 C97.534,1.978 97.507,1.04 97.454,0.109 L0.601,0.109 Z"></path><path id="g" d="M69.708,54.021 C68.654,72.799 52.251,87.148 33.072,86.071 C13.894,84.994 -0.799,68.899 0.255,50.121 C0.937,37.989 3.991,40.341 5.621,41.277 C7.252,42.214 7.796,14.106 9.97,8.128 C12.144,2.149 21.925,-1.112 39.315,0.518 C56.706,2.149 67.575,8.127 67.575,15.191 C67.575,22.256 65.402,47.67 66.489,47.256 C67.575,46.842 70.399,41.707 69.708,54.021 Z"></path></defs><g fill="none" fill-rule="evenodd" transform="translate(392 102)"><g transform="translate(54 1173.38)"><path fill="#F6DDD6" fill-rule="nonzero" d="M136.582,138.52 L141.33,7.55 L73.398,16.24 C80.063,53.2 71.801,150.8 64.845,171.67 C57.889,192.54 -0.3685,177.1 80.606,202.65 L121.365,168.41 L136.582,138.52 Z"></path><path fill="#000" fill-rule="nonzero" d="M153.829,145.42 C150.566,139.98 147.307,135.41 144.146,134.55 C143.054,134.25 140.616,133.87 139.699,134.55 C102.773,166.88 128.286,181.28 50.085,182.44 C49.855,182.22 49.397,182.22 48.938,182.44 C36.094,187.16 12.012,193.44 2.1502,200.18 C0.3154,201.75 -1.5195,212.05 2.1502,213.85 C15.911,221.26 75.146,227.58 93.035,219.04 C105.879,212.98 119.605,173.22 130.614,162.22 C136.348,156.6 143.457,150.31 144.146,162.44 L142.312,217.25 C142.312,218.15 143.23,219.04 144.147,219.04 L151.486,219.04 C152.633,219.04 153.321,218.15 153.321,217.25 L155.154,169.45 C156.002,166.07 157.091,150.85 153.829,145.42 Z"></path><g transform="translate(0 119.62)"><mask id="b" fill="#fff"><use xlink:href="#a"></use></mask><g fill="#FFF" fill-rule="nonzero" mask="url(#b)"><g transform="translate(22 59)"><path d="M19.8403062,-1.36006696 L24.3176938,1.72006696 C19.5321915,8.6764362 21.4820165,16.9627441 29.5015591,25.5217709 C39.0445876,35.7033021 53.5044015,44.9779638 61.8887573,44.8069288 L62.2003013,44.7960707 L62.4696987,50.2239293 C52.1904026,50.734115 36.5782654,40.858059 25.9148404,29.6391242 L25.5361252,29.2378923 C16.0592709,19.123519 13.4302559,8.28968666 19.6256772,-1.04250891 L19.8403062,-1.36006696 Z"></path><path d="M1.34218602,-1.35989228 L5.81981398,1.71989228 C1.03503336,8.67637479 2.9851237,16.9628586 11.0045591,25.5217709 C20.5475876,35.7033021 35.0074015,44.9779638 43.3917573,44.8069288 L43.7033013,44.7960707 L43.9726987,50.2239293 C33.6934026,50.734115 18.0812654,40.858059 7.41784038,29.6391242 L7.03912516,29.2378923 C-2.43753451,19.1237266 -5.06682814,8.28993482 1.12759145,-1.04233177 L1.34218602,-1.35989228 Z"></path></g></g></g><path fill="#F6DDD6" fill-rule="nonzero" d="M199.556,140.98 L193.446,1.13686838e-13 L263.784,24.56 C257.739,63.61 265.066,152.85 272.101,173.02 C279.136,193.19 338.049,178.27 256.163,202.96 L214.944,169.87 L199.556,140.98 Z"></path><path fill="#000" fill-rule="nonzero" d="M183.617,148.17 C186.916,142.92 190.212,138.5 193.409,137.66 C194.513,137.37 196.978,137.01 197.906,137.66 C235.248,168.92 209.447,182.84 288.529,183.96 C288.761,183.74 289.225,183.74 289.689,183.96 C302.677,188.52 327.031,194.59 337.004,201.11 C338.859,202.63 340.715,212.58 337.004,214.32 C323.088,221.48 263.186,227.59 245.095,219.34 C232.107,213.48 218.226,175.04 207.093,164.41 C201.295,158.98 194.105,152.9 193.409,164.62 L195.263,217.6 C195.263,218.47 194.336,219.34 193.408,219.34 L185.986,219.34 C184.826,219.34 184.13,218.47 184.13,217.6 L182.276,171.4 C181.419,168.13 180.318,153.42 183.617,148.17 Z"></path><g transform="translate(175 123.62)"><mask id="d" fill="#fff"><use xlink:href="#c"></use></mask><g fill="#FFF" fill-rule="nonzero" mask="url(#d)"><g transform="translate(78 56)"><path d="M43.8085558,-0.767160957 C50.4025966,8.3960715 47.7677652,19.1006352 38.0415424,29.0130848 C27.3840917,39.8747011 11.6167286,49.543253 1.14543958,49.2976647 L0.76472543,49.2842406 L1.02127457,43.8557594 C9.49754883,44.2563468 24.3720556,35.1848728 34.1624672,25.2069055 C42.1260129,17.0908828 44.1307841,9.27360759 39.5878286,2.67754227 L39.3974442,2.40716096 L43.8085558,-0.767160957 Z"></path><path d="M62.5146801,-0.766988163 C69.1077926,8.39646842 66.473222,19.1011888 56.7475424,29.0130848 C46.0906653,39.8741166 30.3220413,49.5432496 19.8514033,49.2976643 L19.4707138,49.28424 L19.7272862,43.85576 C28.2028655,44.2563509 43.0786341,35.1842833 52.8684672,25.2069055 C60.8315321,17.0913728 62.8361495,9.27382682 58.2936838,2.67738501 L58.1033199,2.40698816 L62.5146801,-0.766988163 Z"></path></g></g></g></g><g fill-rule="nonzero" transform="translate(.23 410.851)"><path fill="#F6DDD6" d="M84.235 87.4954C106.445463 87.4954 124.4506 105.500537 124.4506 127.711 124.4506 149.699358 106.803765 167.566077 84.9000385 167.921212L84.235 167.9266C80.110193 167.9266 78.0343326 168.63707 76.1077684 170.186056 73.2365254 172.494579 69.9914495 177.095255 66.6859287 184.481434L66.4552168 185.001275C59.2506243 201.369801 54.5877092 222.420669 47.620709 266.553417L44.1946511 288.480029 43.0476435 295.693838C42.4177817 299.614659 41.8246146 303.232294 41.2314139 306.762716L40.6853875 309.986552C40.3226336 312.110866 39.9620203 314.187318 39.6012273 316.227663 35.7337635 338.098816 14.8684913 352.693691-7.00266254 348.826227-28.8738164 344.958764-43.468691 324.093491-39.6012273 302.222337-39.1727851 299.799426-38.7427057 297.310281-38.3065131 294.73183L-37.6658364 290.907592C-37.1949045 288.070121-36.7153264 285.123453-36.2068815 281.948188L-31.6201398 252.692905C-28.2850137 231.549762-25.979611 218.393738-23.1235941 205.054554L-22.8774073 203.910556C-18.5332247 183.825094-13.5736858 167.169534-7.1606224 152.599328 1.04109693 133.965372 11.6248489 118.827057 25.7094837 107.502798 42.1223724 94.3065882 62.0234007 87.4954 84.235 87.4954zM305.284968 106.672673C316.304334 87.3885284 340.870183 80.688602 360.154327 91.7079681 401.391631 115.271832 438.237621 186.10613 448.428687 252.590874 454.184442 290.14042 451.177662 324.417321 436.87971 351.956641 418.697329 386.977766 384.489055 406.5036 340.202 406.5036 317.991537 406.5036 299.9864 388.498463 299.9864 366.288 299.9864 344.299642 317.633235 326.432923 339.536962 326.077788L340.202 326.0724C348.770577 326.0724 354.699178 324.655899 358.64983 322.400895 361.487381 320.781242 363.632061 318.485424 365.495947 314.89539 370.760387 304.755539 372.323198 286.939693 368.926063 264.777376 365.456578 242.143057 357.171091 217.378557 346.251784 196.386818 341.147353 186.573842 335.70728 178.068725 330.440089 171.542749 328.07339 168.610441 325.826751 166.185086 323.798203 164.324069 322.342704 162.988775 321.164749 162.091815 320.390152 161.624601L320.249673 161.542032C300.965528 150.522666 294.265602 125.956817 305.284968 106.672673z"></path><path fill="#EED1C9" d="M69.019,219.012 L69.019,87.496 L142.385,78.801 L160.862,59.236 L175.535,52.715 L257.597,49.998 L266.292,54.345 L293.465,78.801 L352.158,87.496 L359.766,235.859 L344.55,351.614 L344.55,383.678 C344.55,383.678 359.766,408.134 359.766,427.698 L359.766,827.139 L88.583,827.139 C88.583,827.139 77.17,451.067 82.605,427.698 C88.039,404.33 88.583,383.678 88.583,383.678 L88.583,356.506 L69.019,219.012 Z"></path><path fill="#000" fill-opacity=".62" d="M69.019,219.012 L69.019,87.496 L142.385,78.801 L160.862,59.236 L175.535,52.715 L257.597,49.998 L266.292,54.345 L293.465,78.801 L352.158,87.496 L359.766,235.859 L344.55,351.614 L344.55,383.678 C344.55,383.678 359.766,408.134 359.766,427.698 L359.766,827.139 L88.583,827.139 C88.583,827.139 77.17,451.067 82.605,427.698 C88.039,404.33 88.583,383.678 88.583,383.678 L88.583,356.506 L69.019,219.012 Z"></path><rect width="85.866" height="111.951" x="172.274" fill="#EED1C9" rx="42.933"></rect><polygon fill="#000" points="184.231 85.866 172.275 64.127 172.275 54.345 161.406 59.236 167.384 90.757 195.1 123.907 254.336 115.756 275.531 80.975 266.292 54.345 258.141 49.998 258.141 56.519 254.336 65.758 242.38 80.975 229.337 97.278"></polygon><polygon fill="#000" fill-opacity=".62" points="354.223 80.232 351.53 88.131 354.223 232.278 363.651 243.467 372.181 88.131 363.651 78.257 360.509 82.207"></polygon><polygon fill="#000" fill-opacity=".62" points="64.127 82.605 69.018 87.496 69.018 205.426 69.018 221.186 71.736 235.316 70.649 236.946 43.476 91.844 43.476 82.605 53.258 82.605 58.693 87.496"></polygon><polygon fill="#000" fill-opacity=".62" points="61.954 93.474 71.192 235.859 63.584 184.231 58.693 87.496"></polygon><polygon fill="#000" fill-opacity=".62" points="26.628 87.776 44.02 90.214 76.444 233.12 71.648 238.639 42.405 213.601 38.681 187.033 16.12 171.119 27.422 133.419 15.259 121.673"></polygon><polygon fill="#000" fill-opacity=".62" points="389.467 83.854 371.635 93.831 360.768 237.98 365.116 244.544 375.985 231.416 375.985 204.613 383.952 192.643 382.18 168.623 389.832 151.24 389.07 120.104 397.458 97.546"></polygon><path fill="#000" d="M337.485,84.779 L302.704,80.431 C302.704,80.431 298.9,120.647 279.335,143.472 C259.771,166.297 215.208,194.013 215.208,194.013 C215.208,194.013 168.471,170.101 147.276,143.472 C126.081,116.843 126.625,80.431 126.625,80.431 L84.779,84.779 C84.779,84.779 94.017,112.495 94.017,135.32 C94.017,158.145 95.104,192.926 89.126,204.882 C83.148,216.838 70.105,236.402 70.105,236.402 C70.105,236.402 91.3,340.202 100.539,362.484 C109.778,384.765 99.995,395.091 94.017,403.786 C88.039,412.482 89.126,430.415 89.126,455.958 C89.126,481.5 107.06,822.249 107.06,822.249 L258.14,804.859 L258.14,794.529 L273.901,794.529 L267.379,814.089 L289.117,822.249 L348.897,814.089 C348.897,814.089 356.506,465.378 356.506,451.067 C356.506,420.09 348.897,398.352 348.897,398.352 C348.897,398.352 331.507,379.874 337.485,362.484 C343.463,345.093 356.506,216.838 356.506,216.838 C356.506,216.838 348.354,199.991 343.463,186.948 C338.572,173.905 337.485,154.341 337.485,135.32 L337.485,84.779 Z"></path><polygon fill="#353333" points="99.995 360.31 99.995 398.352 96.735 398.352 96.735 360.31"></polygon><polygon fill="#353333" points="93.474 360.31 93.474 398.352 90.214 398.352 90.214 360.31"></polygon><polygon fill="#353333" points="106.517 360.31 106.517 398.352 103.257 398.352 103.257 360.31"></polygon><polygon fill="#353333" points="113.038 360.854 113.038 398.895 109.778 398.895 109.778 360.854"></polygon><polygon fill="#353333" points="119.56 360.854 119.56 398.895 116.3 398.895 116.3 360.854"></polygon><polygon fill="#353333" points="126.081 360.854 126.081 398.895 122.821 398.895 122.821 360.854"></polygon><polygon fill="#353333" points="132.603 360.854 132.603 398.895 129.343 398.895 129.343 360.854"></polygon><polygon fill="#353333" points="139.124 360.854 139.124 398.895 135.864 398.895 135.864 360.854"></polygon><polygon fill="#353333" points="145.645 360.854 145.645 398.895 142.385 398.895 142.385 360.854"></polygon><polygon fill="#353333" points="152.167 360.31 152.167 398.352 148.907 398.352 148.907 360.31"></polygon><polygon fill="#353333" points="158.688 360.31 158.688 398.352 155.428 398.352 155.428 360.31"></polygon><polygon fill="#353333" points="165.21 360.854 165.21 398.895 161.95 398.895 161.95 360.854"></polygon><polygon fill="#353333" points="171.731 360.854 171.731 398.895 168.471 398.895 168.471 360.854"></polygon><polygon fill="#353333" points="178.253 360.854 178.253 398.895 174.993 398.895 174.993 360.854"></polygon><polygon fill="#353333" points="184.774 360.854 184.774 398.895 181.514 398.895 181.514 360.854"></polygon><polygon fill="#353333" points="191.296 360.854 191.296 398.895 188.036 398.895 188.036 360.854"></polygon><polygon fill="#353333" points="197.817 360.854 197.817 398.895 194.557 398.895 194.557 360.854"></polygon><polygon fill="#353333" points="204.338 360.31 204.338 398.352 201.078 398.352 201.078 360.31"></polygon><polygon fill="#353333" points="210.86 360.31 210.86 398.352 207.6 398.352 207.6 360.31"></polygon><polygon fill="#353333" points="217.381 360.854 217.381 398.895 214.121 398.895 214.121 360.854"></polygon><polygon fill="#353333" points="223.902 360.854 223.902 398.895 220.642 398.895 220.642 360.854"></polygon><polygon fill="#353333" points="230.424 360.854 230.424 398.895 227.164 398.895 227.164 360.854"></polygon><polygon fill="#353333" points="236.945 360.854 236.945 398.895 233.685 398.895 233.685 360.854"></polygon><polygon fill="#353333" points="243.467 360.854 243.467 398.895 240.207 398.895 240.207 360.854"></polygon><polygon fill="#353333" points="249.988 360.854 249.988 398.895 246.728 398.895 246.728 360.854"></polygon><polygon fill="#353333" points="256.51 360.31 256.51 398.352 253.25 398.352 253.25 360.31"></polygon><polygon fill="#353333" points="263.031 360.31 263.031 398.352 259.771 398.352 259.771 360.31"></polygon><polygon fill="#353333" points="269.553 360.854 269.553 398.895 266.293 398.895 266.293 360.854"></polygon><polygon fill="#353333" points="276.074 360.854 276.074 398.895 272.814 398.895 272.814 360.854"></polygon><polygon fill="#353333" points="282.596 360.854 282.596 398.895 279.336 398.895 279.336 360.854"></polygon><polygon fill="#353333" points="289.117 360.854 289.117 398.895 285.857 398.895 285.857 360.854"></polygon><polygon fill="#353333" points="295.639 360.854 295.639 398.895 292.379 398.895 292.379 360.854"></polygon><polygon fill="#353333" points="302.16 360.854 302.16 398.895 298.9 398.895 298.9 360.854"></polygon><polygon fill="#353333" points="308.681 360.31 308.681 398.352 305.421 398.352 305.421 360.31"></polygon><polygon fill="#353333" points="315.203 360.31 315.203 398.352 311.943 398.352 311.943 360.31"></polygon><polygon fill="#353333" points="321.724 360.854 321.724 398.895 318.464 398.895 318.464 360.854"></polygon><polygon fill="#353333" points="328.246 360.854 328.246 398.895 324.986 398.895 324.986 360.854"></polygon><polygon fill="#353333" points="334.767 360.854 334.767 398.895 331.507 398.895 331.507 360.854"></polygon><polygon fill="#353333" points="341.289 360.854 341.289 398.895 338.029 398.895 338.029 360.854"></polygon><polygon fill="#000" fill-opacity=".33" points="245.098 839.089 216.838 405.417 136.407 419.546 90.213 827.679"></polygon><polygon fill="#000" fill-opacity=".36" points="228.794 834.199 248.358 472.805 329.876 466.284 341.832 834.199"></polygon><path fill="#000" fill-opacity=".21" d="M104.886,382.592 C106.625,378.679 101.626,364.295 98.908,357.593 L337.485,355.962 C336.941,358.861 335.854,366.071 335.854,371.723 C335.854,377.375 343.825,392.193 347.81,398.895 C262.307,401.069 92.061,404.765 95.104,402.156 C98.908,398.895 102.713,387.483 104.886,382.592 Z"></path><ellipse cx="222.272" cy="427.698" fill="#FFF" fill-opacity=".6" rx="6.521" ry="5.978"></ellipse><ellipse cx="222.272" cy="478.783" fill="#FFF" fill-opacity=".6" rx="6.521" ry="5.978"></ellipse><ellipse cx="222.272" cy="477.696" fill="#FFF" fill-opacity=".6" rx="6.521" ry="5.978"></ellipse><ellipse cx="222.272" cy="529.868" fill="#FFF" fill-opacity=".6" rx="6.521" ry="5.978"></ellipse><ellipse cx="222.272" cy="580.952" fill="#FFF" fill-opacity=".6" rx="6.521" ry="5.978"></ellipse><ellipse cx="222.272" cy="632.039" fill="#FFF" fill-opacity=".6" rx="6.521" ry="5.978"></ellipse></g><g transform="translate(5.121)"><polygon fill="#DFC5B2" fill-rule="nonzero" points="367.918 310.855 367.918 387.482 366.831 387.482 366.831 310.855"></polygon><polygon fill="#DFC5B2" fill-rule="nonzero" points="365.202 314.636 366.288 314.682 362.484 404.896 361.398 404.85"></polygon><polygon fill="#DFC5B2" fill-rule="nonzero" points="44.019 310.855 44.019 387.482 42.932 387.482 42.932 310.855"></polygon><polygon fill="#DFC5B2" fill-rule="nonzero" points="41.303 314.636 42.389 314.682 38.585 404.896 37.499 404.85"></polygon><ellipse cx="64.221" cy="265.288" fill="#EBBAAA" fill-rule="nonzero" rx="64.221" ry="60.95"></ellipse><circle cx="42.389" cy="310.855" r="6.521" fill="#FDF2EC" fill-rule="nonzero"></circle><ellipse cx="346.817" cy="265.288" fill="#EBBAAA" fill-rule="nonzero" rx="64.221" ry="60.95"></ellipse><path fill="#F6DDD6" fill-rule="nonzero" d="M42.389,170.549998 C42.389,87.763198 114.1657,20.650898 202.7077,20.650898 C291.2497,20.650898 363.0267,87.763198 363.0267,170.549998 L352.1577,319.643998 C339.2287,416.353998 257.0537,467.369998 202.7077,467.369998 C148.3627,467.369998 62.7397,405.070998 53.258,319.643998 L42.389,170.549998 Z"></path><path fill="#F9D5C5" fill-rule="nonzero" d="M94.8822701 287.622135C98.7095279 282.997617 105.561046 282.35131 110.185563 286.178568 114.730348 289.939839 115.432919 296.621983 111.823105 301.240703L111.62913 301.481861 98.5861299 317.241861C94.7588721 321.866379 87.9073543 322.512686 83.2828366 318.685428 78.7380521 314.924157 78.0354813 308.242013 81.6452954 303.623293L81.8392701 303.382135 94.8822701 287.622135zM129.66327 289.796135C133.490528 285.171617 140.342046 284.52531 144.966563 288.352568 149.511348 292.113839 150.213919 298.795983 146.604105 303.414703L146.41013 303.655861 133.36713 319.415861C129.539872 324.040379 122.688354 324.686686 118.063837 320.859428 113.519052 317.098157 112.816481 310.416013 116.426295 305.797293L116.62027 305.556135 129.66327 289.796135zM275.776347 285.317419C280.790021 282.205186 287.350698 283.667734 290.57928 288.563366L290.743279 288.819645 300.526279 304.579645C303.692171 309.679762 302.124171 316.380686 297.024053 319.546577 292.010379 322.65881 285.449702 321.196262 282.22112 316.30063L282.057121 316.044351 272.274121 300.284351C269.108229 295.184234 270.676229 288.48331 275.776347 285.317419zM307.296347 285.317419C312.310021 282.205186 318.870698 283.667734 322.09928 288.563366L322.263279 288.819645 332.046279 304.579645C335.212171 309.679762 333.644171 316.380686 328.544053 319.546577 323.530379 322.65881 316.969702 321.196262 313.74112 316.30063L313.577121 316.044351 303.794121 300.284351C300.628229 295.184234 302.196229 288.48331 307.296347 285.317419z"></path><path fill="#393939" d="M157.3997,344.320998 L157.3997,361.760998 C157.3997,388.550998 179.1167,410.267998 205.9067,410.267998 C232.6957,410.267998 254.4127,388.550998 254.4127,361.760998 L254.4127,344.320998 L157.3997,344.320998 Z"></path><g transform="translate(156.879 341)"><mask id="f" fill="#fff"><use xlink:href="#e"></use></mask><g fill-rule="nonzero" mask="url(#f)"><g transform="translate(0 3)"><ellipse cx="49.028" cy="65.896" fill="#FF6C6C" rx="29.252" ry="15.931"></ellipse><rect width="97.013" height="20.006" x=".521" y=".32" fill="#FFF"></rect></g></g></g><path fill="#62360D" fill-rule="nonzero" d="M96.7474716,188.03486 L159.840472,188.65186 C163.441997,188.68708 166.333058,191.635244 166.298157,195.23677 C166.263384,198.760001 163.441258,201.603322 159.946861,201.692307 L159.712928,201.694136 L96.6199284,201.077136 C93.0184032,201.041916 90.1273417,198.093752 90.1622434,194.492226 C90.1970162,190.968995 93.019142,188.125674 96.5135391,188.036689 L96.7474716,188.03486 Z"></path><path fill="#000" fill-rule="nonzero" d="M110.425627 232.634604C110.991594 229.761606 113.725234 227.866931 116.592806 228.314912L116.808094 228.352925 145.164094 233.938925C148.108916 234.519041 150.02589 237.376569 149.445773 240.321392 148.879806 243.19439 146.146166 245.089065 143.278594 244.641084L143.063306 244.603071 114.707306 239.017071C111.762484 238.436955 109.84551 235.579427 110.425627 232.634604zM283.769908 225.626205C286.720099 225.074035 289.559323 227.018015 290.111493 229.968206 290.650195 232.846441 288.813026 235.619056 285.983542 236.265338L285.769492 236.309791 256.554492 241.777791C253.604301 242.329961 250.765077 240.385981 250.212907 237.43579 249.674205 234.557555 251.511374 231.78494 254.340858 231.138658L254.554908 231.094205 283.769908 225.626205z"></path><path fill="#000" fill-rule="nonzero" d="M138.5697 225.332098C145.670189 225.332098 151.445479 231.005952 151.609038 238.067129L151.6126 238.374998 151.6126 259.769998C151.6126 266.973393 145.773095 272.812898 138.5697 272.812898 131.469211 272.812898 125.693921 267.139044 125.530362 260.077867L125.5268 259.769998 125.5268 238.374998C125.5268 231.171603 131.366305 225.332098 138.5697 225.332098zM262.2887 223.393098C269.389189 223.393098 275.164479 229.066952 275.328038 236.128129L275.3316 236.435998 275.3316 257.830998C275.3316 265.034393 269.492095 270.873898 262.2887 270.873898 255.188211 270.873898 249.412921 265.200044 249.249362 258.138867L249.2458 257.830998 249.2458 236.435998C249.2458 229.232603 255.085305 223.393098 262.2887 223.393098z"></path><path fill="#62360D" fill-rule="nonzero" d="M304.33057,186.380412 C307.93179,186.321798 310.898672,189.193648 310.957286,192.794868 C311.014626,196.317801 308.267529,199.233676 304.776636,199.413662 L304.54283,199.421584 L242.48883,200.431584 C238.88761,200.490198 235.920728,197.618348 235.862114,194.017128 C235.804774,190.494195 238.551871,187.57832 242.042764,187.398334 L242.27657,187.390412 L304.33057,186.380412 Z"></path><path fill="#EBBAAA" fill-rule="nonzero" d="M193.614747,262.862202 L211.920653,265.373794 L211.759408,266.497394 C211.349726,269.210794 210.848093,271.410688 209.294045,277.675358 L208.448924,281.082793 C208.295242,281.709024 208.158225,282.274666 208.029568,282.814892 L207.805218,283.767446 C206.084482,291.158599 205.583971,295.915206 206.23574,298.63277 C206.339199,299.064147 206.453121,299.350387 206.556112,299.518522 C206.590882,299.575284 206.601269,299.586612 206.633243,299.60982 C206.762139,299.703376 207.006399,299.816926 207.432728,299.931997 C208.069068,300.103752 208.909576,300.213642 209.963482,300.233902 L210.3227,300.237298 L210.3227,318.714698 C198.611651,318.714698 190.667875,312.948924 188.267881,302.942105 C186.76931,296.693782 187.4308,289.961879 189.658271,280.230961 L190.051652,278.547623 C190.162279,278.08295 190.277792,277.604368 190.402707,277.092684 L192.208348,269.772146 C193.027047,266.38448 193.324451,264.908753 193.574533,263.150199 L193.614747,262.862202 Z"></path><path fill="#2D1B14" fill-rule="nonzero" d="M37.3057,137.707998 C47.6334,81.082098 99.8037,19.564898 150.3447,7.172198 C200.8867,-5.220472 193.8207,3.474728 203.0597,3.474788 C212.2987,3.474858 199.1957,-6.413842 263.3837,7.172178 C327.5717,20.758198 369.8267,98.979298 374.4387,142.927998 C378.6277,182.835998 373.6837,196.665998 367.3747,207.055998 C359.2227,204.009998 361.7957,217.461998 361.9397,221.728998 C364.1137,286.292998 338.0277,185.860998 325.8807,130.535998 C313.7337,75.210998 270.4477,62.168298 203.0597,65.972498 C181.3217,67.199598 163.3877,65.972498 118.8237,96.949398 C57.4357,139.620998 55.8717,238.843998 46.002,229.444998 C43.0775,226.658998 47.6324,204.445998 38.3936,208.792998 C32.3531,198.196998 29.6244,179.823998 37.3057,137.707998 Z"></path><path fill="#2D1B14" fill-rule="nonzero" d="M97.2777,135.391998 C140.9297,79.104498 195.7927,69.417498 204.0537,65.286798 C208.7067,62.960198 205.6837,31.177398 204.0537,29.962698 C194.9257,23.161698 171.9537,29.028798 143.4707,45.012598 C93.9807,72.784298 38.8305,152.537998 43.7872,268.209998 C47.7526,360.747998 58.6577,382.796998 86.7437,418.638998 C66.8567,387.140998 70.7737,391.485998 63.0627,368.134998 C49.8888,328.242998 61.4797,181.552998 97.2777,135.391998 Z"></path><path fill="#2D1B14" fill-rule="nonzero" d="M97.2777,149.521998 C140.9297,93.234398 195.7927,83.547398 204.0537,79.416698 C208.7067,77.090098 205.6837,45.307198 204.0537,44.092598 C194.9257,37.291598 171.9537,43.158698 143.4707,59.142398 C93.9807,86.914198 38.8305,166.667998 43.7872,282.339998 C47.7526,374.877998 58.6577,396.926998 86.7437,432.768998 C66.8567,401.270998 70.7737,405.615998 63.0627,382.264998 C49.8888,342.372998 61.4797,195.682998 97.2777,149.521998 Z"></path><path fill="#2D1B14" fill-rule="nonzero" d="M87.3437 126.273998C133.5697 71.701398 191.1147 62.768698 199.8037 58.812798 204.6977 56.584798 201.8197 25.501798 200.1237 24.299198 190.6257 17.565698 166.5137 23.075398 136.5387 38.416198 84.4567 65.070898 31.1696 142.403998 30.1215 255.526998 29.578 314.184998 26.9162 320.532998 57.7827 368.079998 47.7982 339.842998 38.8645 313.677998 39.0317 295.623998 39.1974 277.729998 49.4346 171.028998 87.3437 126.273998zM317.5507 144.950998C290.0747 95.481598 216.6657 85.592898 208.7047 78.629698 204.4777 74.932998 207.1177 41.804498 210.2897 41.012798 232.4827 35.472098 296.5657 59.140898 325.0977 102.086998 353.6307 145.032998 365.6667 244.010998 362.5467 297.812998 361.3557 318.333998 348.5027 357.048998 339.6617 367.374998 345.9027 351.614998 352.1327 332.355998 352.9517 316.190998 356.8247 239.662998 345.0257 194.419998 317.5507 144.950998z"></path><circle cx="367.375" cy="313.029" r="6.521" fill="#FDF2EC" fill-rule="nonzero"></circle></g><g transform="translate(1.86 432)"><polygon fill="#968F8B" fill-rule="nonzero" points="117.167 47.716 179.882 51.238 160.562 223.288 121.23 221.079"></polygon><polygon fill="#EEC981" fill-rule="nonzero" points="132.061 108.193 132.061 128.844 132.061 214.167 143.474 214.167 154.343 110.366"></polygon><path fill="#EEC981" fill-rule="nonzero" d="M117.9286,80.476 L117.9286,69.064 L177.1676,69.064 L177.1676,82.65 C177.1676,82.65 169.0156,95.278 146.1906,94.606 C131.4086,94.172 121.0086,84.281 117.9286,80.476 Z"></path><polygon fill="#292929" fill-rule="nonzero" points="129.439 221.444 152.745 223.165 151.424 241.05 144.379 240.53 143.138 257.331 133.925 256.651 135.165 239.849 128.119 239.329"></polygon><path fill="#292929" fill-rule="nonzero" d="M182.8476,54.021 C181.7936,72.799 165.3906,87.148 146.2116,86.071 C127.0336,84.994 112.3406,68.899 113.3946,50.121 C114.0766,37.989 117.1306,40.341 118.7606,41.277 C120.3916,42.214 120.9356,14.106 123.1096,8.128 C125.2836,2.149 135.0646,-1.112 152.4546,0.518 C169.8456,2.149 180.7146,8.127 180.7146,15.191 C180.7146,22.256 178.5416,47.67 179.6286,47.256 C180.7146,46.842 183.5386,41.707 182.8476,54.021 Z"></path><g transform="translate(113.14)"><mask id="h" fill="#fff"><use xlink:href="#g"></use></mask><g fill="#000" fill-rule="nonzero" mask="url(#h)"><g transform="translate(-7 -5)"><path d="M26.4807716 5.45719134L27.5352284 5.72080866 6.34022843 90.4998087 5.28577157 90.2361913 26.4807716 5.45719134zM21.0444895 5.45832459L22.0995105 5.71967541 7.42551045 64.9556754 6.37048955 64.6943246 21.0444895 5.45832459zM40.0647716 2.19519134L41.1192284 2.45880866 19.9242284 87.2378087 18.8697716 86.9741913 40.0647716 2.19519134zM34.6294351 2.18870718L35.6805649 2.46529282 13.9445649 85.0702928 12.8934351 84.7937072 34.6294351 2.18870718zM53.107424 2.19658943L54.162576 2.45741057 30.250576 99.1934106 29.195424 98.9325894 53.107424 2.19658943zM47.6726355 2.18794798L48.7233645 2.46605202 24.2703645 94.854052 23.2196355 94.575948 47.6726355 2.18794798zM66.694424 2.19658943L67.749576 2.45741057 43.837576 99.1934106 42.782424 98.9325894 66.694424 2.19658943zM61.2596355 2.18794798L62.3103645 2.46605202 37.8573645 94.854052 36.8066355 94.575948 61.2596355 2.18794798zM78.652424 2.19558943L79.707576 2.45641057 55.795576 99.1924106 54.740424 98.9315894 78.652424 2.19558943zM73.2176355 2.18694798L74.2683645 2.46505202 49.8153645 94.853052 48.7646355 94.574948 73.2176355 2.18694798zM92.781424 2.19558943L93.836576 2.45641057 69.924576 99.1924106 68.869424 98.9315894 92.781424 2.19558943zM87.3476369 2.18694266L88.3983631 2.46505734 63.9443631 94.8530573 62.8936369 94.5749427 87.3476369 2.18694266z"></path><path d="M9.21305202 5.06463549L101.601052 29.5176355 101.322948 30.5683645 8.93494798 6.11536451 9.21305202 5.06463549zM9.20441057-.374575985L105.940411 23.537424 105.679589 24.592576 8.94358943.680575985 9.20441057-.374575985zM9.21305202 17.0216355L101.601052 41.4746355 101.322948 42.5253645 8.93494798 18.0723645 9.21305202 17.0216355zM9.20441057 11.582424L105.940411 35.494424 105.679589 36.549576 8.94358943 12.637576 9.20441057 11.582424zM9.21305202 28.9776355L101.601052 53.4306355 101.322948 54.4813645 8.93494798 30.0283645 9.21305202 28.9776355zM9.20441057 23.538424L105.940411 47.450424 105.679589 48.505576 8.94358943 24.593576 9.20441057 23.538424zM9.21305202 42.0206355L101.601052 66.4736355 101.322948 67.5243645 8.93494798 43.0713645 9.21305202 42.0206355zM9.20441057 36.581424L105.940411 60.493424 105.679589 61.548576 8.94358943 37.636576 9.20441057 36.581424zM.518052024 52.8896355L92.906052 77.3426355 92.627948 78.3933645.239947976 53.9403645.518052024 52.8896355zM.509410571 47.450424L97.2454106 71.362424 96.9845894 72.417576.248589429 48.505576.509410571 47.450424zM.518052024 64.8456355L92.906052 89.2986355 92.627948 90.3493645.239947976 65.8963645.518052024 64.8456355zM.509410571 59.406424L97.2454106 83.318424 96.9845894 84.373576.248589429 60.461576.509410571 59.406424zM.518052024 76.8016355L92.906052 101.254635 92.627948 102.305365.239947976 77.8523645.518052024 76.8016355zM.509410571 71.362424L97.2454106 95.274424 96.9845894 96.329576.248589429 72.417576.509410571 71.362424z"></path></g></g></g><path fill="#F6DDD6" fill-rule="nonzero" d="M91.1150355,138.747525 C105.154928,121.537468 130.488018,118.967543 147.698075,133.007436 C164.908132,147.047328 167.478057,172.380418 153.438164,189.590475 L152.965431,190.173535 C144.826172,200.266923 116.533923,237.855586 116.055541,238.476427 L114.37234,240.654517 C99.5874945,259.729411 86.9761906,274.469737 73.57221,287.691456 C55.5403347,305.478141 37.1905562,319.206481 17.3646675,328.697445 C-2.66860291,338.287686 -26.6832038,329.821938 -36.2734449,309.788668 C-45.7677836,289.95573 -37.5654473,266.22069 -17.9621889,256.442571 L-17.3646675,256.150555 C3.26591721,246.27437 23.597904,226.428327 50.6777033,191.539221 L52.4426074,189.25217 C54.3638831,186.690348 82.8408746,148.889966 91.1150355,138.747525 Z"></path></g></g></svg>