<svg xmlns="http://www.w3.org/2000/svg" data-name="Layer 2" viewBox="0 0 837.25 731.38" id="weather-report"><defs><linearGradient id="a" x1="116.32" x2="112.48" y1="219.93" y2="591.05" gradientUnits="userSpaceOnUse"><stop offset=".03" stop-color="#fff"></stop><stop offset="1" stop-color="#fff" stop-opacity="0"></stop></linearGradient></defs><rect width="491.79" height="700.24" x="171.58" y="31.14" fill="#f8f8ff" rx="245.9"></rect><path fill="#b0c0f4" d="M851.59,373.37s18.72-19.35,22-42.49,24.23-28.63,38.55-24.23S939.7,351.13,975,350.92s94.73-28.85,96.93-36.56,5.51-22,29.74-25.33,25.33-26.44,60.58-26.44,97.3,5.91,102.81,8.11,31.54,5.86,37,36.38c0,0,4.43,12.84-3.28,49.16s46.26,59.46,59.48,59.46,51.77,81.51,8.81,150.9-37.45,95.82-82.61,68.29-40.75,1.1-45.16-27.54-26.43-13.22-33-28.64,16.52-46.26,1.1-52.87-54,5.51-61.68-34.14-55.08,7.71-33,44.06-24.23,8.81-24.23,30.84-26.43,39.65-13.22,56.17,47.37,109.05-58.37,106.84-46.27,18.73-68.29,20.93S914.37,723,879.12,723s-156.4-6.6-153.1-59.47,35.08-43,34.61-89.22-53.79-99.69,26.84-148.43S851.59,373.37,851.59,373.37Z" transform="translate(-640.35 -157.14)"></path><rect width="170.49" height="398.17" x="30.32" y="93.85" fill="url(#a)"></rect><circle cx="120.28" cy="138.22" r="26.84" fill="#bac5f4"></circle><rect width="96.27" height="10.65" x="46.42" y="193.78" fill="#bac5f4" rx="4.62"></rect><rect width="23.76" height="10.65" x="165.19" y="193.78" fill="#bac5f4" rx="4.62"></rect><rect width="66.61" height="10.65" x="46.42" y="216.23" fill="#bac5f4" rx="4.62"></rect><rect width="11.88" height="10.65" x="177.06" y="216.23" fill="#bac5f4" rx="4.62"></rect><rect width="106.35" height="10.65" x="47.25" y="241.18" fill="#bac5f4" rx="4.62"></rect><rect width="17.04" height="10.65" x="172.73" y="241.18" fill="#bac5f4" rx="4.62"></rect><rect width="89.19" height="10.65" x="47.25" y="263.42" fill="#bac5f4" rx="4.62"></rect><rect width="23.76" height="10.65" x="166.02" y="263.42" fill="#bac5f4" rx="4.62"></rect><rect width="53.18" height="10.65" x="47.25" y="286.7" fill="#bac5f4" rx="4.62"></rect><rect width="32.79" height="10.65" x="156.99" y="286.7" fill="#bac5f4" rx="4.62"></rect><rect width="87.07" height="10.65" x="47.25" y="309.15" fill="#bac5f4" rx="4.62"></rect><rect width="23.76" height="10.65" x="166.02" y="309.15" fill="#bac5f4" rx="4.62"></rect><path fill="#b0c0f4" d="M1127.53,635.21a31.14,31.14,0,0,1,4.73-36.13c6.33-6.74,11.48-15.49,11.06-25.9-1-26,23.92-35.35,28.08-23.91s2.08,51,18.71,54.07,41.6,22,21.84,45.82-28.07-13.59-19.76,23.85-39.51,68.26-51,39.84-46.74-18.36-21.83-37.76C1136,662.12,1133.87,647.05,1127.53,635.21Z" transform="translate(-640.35 -157.14)"></path><path fill="none" stroke="#fff" stroke-linecap="round" stroke-miterlimit="10" d="M1240.56,330.9l2.74-2.9" transform="translate(-640.35 -157.14)"></path><path fill="none" stroke="#fff" stroke-dasharray="6.35 6.35" stroke-linecap="round" stroke-miterlimit="10" d="M1247.66,323.39c4.06-4.31,9.47-10.08,15.18-16.21" transform="translate(-640.35 -157.14)"></path><path fill="none" stroke="#fff" stroke-linecap="round" stroke-miterlimit="10" d="M1265,304.85l2.72-2.94" transform="translate(-640.35 -157.14)"></path><circle cx="627.37" cy="142.27" r="7.68" fill="#fff"></circle><circle cx="591.38" cy="182.01" r="7.68" fill="#fff"></circle><path fill="none" stroke="#fff" stroke-linecap="round" stroke-miterlimit="10" d="M854,535.24s.39-1.33,1.34-3.76" transform="translate(-640.35 -157.14)"></path><path fill="none" stroke="#fff" stroke-dasharray="8.03 8.03" stroke-linecap="round" stroke-miterlimit="10" d="M858.58,524.12c15.31-31.94,75.15-123.33,266.42-149.7" transform="translate(-640.35 -157.14)"></path><path fill="none" stroke="#fff" stroke-linecap="round" stroke-miterlimit="10" d="M1129 373.88l4-.51M846.26 543.47s.73 1.23 2.07 3.41" transform="translate(-640.35 -157.14)"></path><path fill="none" stroke="#fff" stroke-dasharray="8.42 8.42" stroke-linecap="round" stroke-miterlimit="10" d="M852.79,554c11.71,18.44,37.23,56.33,60.37,75.28" transform="translate(-640.35 -157.14)"></path><path fill="none" stroke="#fff" stroke-linecap="round" stroke-miterlimit="10" d="M916.48,631.9c1.09.82,2.18,1.59,3.26,2.3" transform="translate(-640.35 -157.14)"></path><circle cx="205.91" cy="385.18" r="34.33" fill="none" stroke="#fff" stroke-miterlimit="10" stroke-width="4"></circle><circle cx="205.91" cy="386.33" r="13.62" fill="#fff"></circle><circle cx="554.14" cy="212.17" r="34.33" fill="none" stroke="#fff" stroke-miterlimit="10" stroke-width="4"></circle><circle cx="554.14" cy="213.33" r="13.62" fill="#fff"></circle><circle cx="505.06" cy="215.08" r="7.68" fill="#fff"></circle><circle cx="279.39" cy="477.07" r="7.68" fill="#fff"></circle><rect width="84.86" height="5.32" x="298.95" y="477.07" fill="#f8f8ff" rx="2.31"></rect><rect width="84.86" height="5.32" x="298.95" y="492.02" fill="#f8f8ff" rx="2.31"></rect><rect width="84.86" height="5.32" x="298.95" y="510.86" fill="#f8f8ff" rx="2.31"></rect><rect width="54.34" height="5.32" x="298.95" y="525.87" fill="#f8f8ff" rx="2.31"></rect><rect width="84.86" height="5.32" x="636.2" y="153.28" fill="#e1e6fb" rx="2.31"></rect><rect width="84.86" height="5.32" x="636.2" y="168.23" fill="#e1e6fb" rx="2.31"></rect><rect width="84.86" height="5.32" x="636.2" y="187.07" fill="#e1e6fb" rx="2.31"></rect><rect width="54.34" height="5.32" x="636.2" y="202.08" fill="#e1e6fb" rx="2.31"></rect><path fill="none" stroke="#bac5f4" stroke-miterlimit="10" d="M927.42,634.2s1.39.23,4,.55" transform="translate(-640.35 -157.14)"></path><path fill="none" stroke="#bac5f4" stroke-dasharray="7.86 7.86" stroke-miterlimit="10" d="M939.19,635.6c55,5.24,283.45,11.82,256.22-243.63" transform="translate(-640.35 -157.14)"></path><path fill="none" stroke="#bac5f4" stroke-miterlimit="10" d="M1195,388.05c-.15-1.32-.31-2.64-.48-4" transform="translate(-640.35 -157.14)"></path><path fill="#b0c0f4" d="M1356.26 387.22s-16.25-16.53-1-28.23 19.34-11 19.47.66-11.28 13.43-4.37 25.72-1.45 15.51-6.62 12.84S1356.26 387.22 1356.26 387.22zM1353.5 391s1 9 9.13 12.87 21.93 13 20.71 20.25-17.38-13-22.44-11.22-16.12-4.85-19.44-13.36-2.69-15.28 2.33-15.22S1353.5 391 1353.5 391z" transform="translate(-640.35 -157.14)"></path><path fill="#f8f8ff" d="M1325.1 241.85H1453c20.54 0 32.25-24.06 19-39.8-7.72-9.19-21.84-16.08-47.1-15.08 0 0-35.31-67-84.78-.1 0 0-40.7-4-43.82 22l-.09.77A29 29 0 001325.1 241.85zM669.42 817.4H797.28c20.54 0 32.25-24.06 19-39.79-7.73-9.2-21.84-16.08-47.11-15.09 0 0-35.3-67-84.78-.09 0 0-40.69-4-43.81 22.05 0 .26-.06.52-.09.77A29 29 0 00669.42 817.4z" transform="translate(-640.35 -157.14)"></path></svg>