<svg xmlns="http://www.w3.org/2000/svg" xmlns:xlink="http://www.w3.org/1999/xlink" data-name="Layer 1" viewBox="0 0 464.34 404.01" id="weather-forecast-news-by-news-anchor"><defs><linearGradient id="a" x1="226.75" x2="235.76" y1="-1.06" y2="287.26" gradientUnits="userSpaceOnUse"><stop offset="0" stop-color="#fff" stop-opacity="0"></stop><stop offset=".84" stop-color="#fff" stop-opacity=".84"></stop><stop offset=".97" stop-color="#fff"></stop></linearGradient><linearGradient id="d" x1="163.44" x2="151.05" y1="147.4" y2="124.87" xlink:href="#a"></linearGradient><linearGradient id="e" x1="178.06" x2="165.67" y1="142.77" y2="120.24" xlink:href="#a"></linearGradient><linearGradient id="f" x1="153.9" x2="141.51" y1="156.05" y2="133.53" xlink:href="#a"></linearGradient><linearGradient id="g" x1="180.75" x2="168.37" y1="207.07" y2="184.55" gradientTransform="rotate(45 162.563 173.986)" xlink:href="#a"></linearGradient><linearGradient id="h" x1="194.73" x2="182.34" y1="199.38" y2="176.86" gradientTransform="rotate(45 203.012 214.45)" xlink:href="#a"></linearGradient><linearGradient id="i" x1="165.78" x2="153.39" y1="215.31" y2="192.78" gradientTransform="rotate(90 154.18 194.22)" xlink:href="#a"></linearGradient><linearGradient id="j" x1="209.71" x2="197.32" y1="191.15" y2="168.62" gradientTransform="rotate(90 211.395 194.215)" xlink:href="#a"></linearGradient><linearGradient id="k" x1="211.82" x2="199.43" y1="189.99" y2="167.46" gradientTransform="rotate(-45 203.01 173.99)" xlink:href="#a"></linearGradient><linearGradient id="l" x1="163.67" x2="151.28" y1="216.47" y2="193.94" gradientTransform="rotate(-45 162.565 214.443)" xlink:href="#a"></linearGradient><linearGradient id="m" x1="89.92" x2="89.92" y1="92.57" y2="164.37" xlink:href="#a"></linearGradient><linearGradient id="n" x1="196.25" x2="196.25" y1="92.57" y2="164.37" xlink:href="#a"></linearGradient><linearGradient id="o" x1="302.58" x2="302.58" y1="92.57" y2="164.37" xlink:href="#a"></linearGradient><linearGradient id="p" x1="408.9" x2="408.9" y1="92.57" y2="164.37" xlink:href="#a"></linearGradient><linearGradient id="b" x1="415.16" x2="420.51" y1="428.49" y2="482.55" gradientUnits="userSpaceOnUse"><stop offset="0" stop-opacity="0"></stop><stop offset=".88" stop-opacity=".8"></stop><stop offset=".97"></stop></linearGradient><linearGradient id="q" x1="440.66" x2="433.91" y1="507.56" y2="297.52" xlink:href="#b"></linearGradient><linearGradient id="c" x1="385.03" x2="400.5" y1="252.76" y2="252.76" gradientUnits="userSpaceOnUse"><stop offset="0" stop-color="#ecc4d7"></stop><stop offset=".42" stop-color="#efd4d1"></stop><stop offset="1" stop-color="#f2eac9"></stop></linearGradient><linearGradient id="r" x1="460.7" x2="474.02" y1="360.92" y2="360.92" xlink:href="#c"></linearGradient><linearGradient id="s" x1="398.14" x2="411.51" y1="440.93" y2="440.93" xlink:href="#c"></linearGradient><linearGradient id="t" x1="460.34" x2="473.36" y1="441.76" y2="441.76" xlink:href="#c"></linearGradient><linearGradient id="u" x1="430.28" x2="452.55" y1="258.64" y2="258.64" xlink:href="#c"></linearGradient><linearGradient id="v" x1="448.73" x2="450.61" y1="258.71" y2="259.02" xlink:href="#c"></linearGradient><linearGradient id="w" x1="440.93" x2="445.25" y1="264.54" y2="299.78" xlink:href="#c"></linearGradient><linearGradient id="x" x1="442.5" x2="445.46" y1="263.1" y2="302.19" xlink:href="#b"></linearGradient><linearGradient id="y" x1="449.71" x2="459.95" y1="284.21" y2="419.6" xlink:href="#b"></linearGradient><linearGradient id="z" x1="372.07" x2="463.58" y1="315.37" y2="226.11" xlink:href="#b"></linearGradient><linearGradient id="A" x1="461.15" x2="465.16" y1="253.71" y2="382.1" xlink:href="#a"></linearGradient></defs><path fill="#68e1fd" d="M69 94s36.29-54.78 138.3-36.41S386.55 234 386.55 234l56.24 45s47.11 163.07 20.26 168-335.79 0-335.79 0-73.94-31.57 0-122.48c0 0 27.16-57.17-66-52.65S69 94 69 94Z" opacity=".19" transform="translate(-21.76 -53.82)" style="isolation:isolate"></path><path fill="#68e1fd" d="M284.54 82.93s-63.24-27.25-100.32 18.93 17.39 170.42 31.27 185.45 29.63 36.42 62.3 31.91 64.57 3.44 59.31 41.7 57.4 82.87 57.4 82.87l76.37-2s-89.59-136.67-91.78-242.23-94.55-116.63-94.55-116.63Z" opacity=".36" transform="translate(-21.76 -53.82)" style="isolation:isolate"></path><rect width="457.07" height="177.05" x="7.26" y="46.15" fill="#68e1fd" opacity=".36" rx="16.6" style="isolation:isolate"></rect><rect width="457.07" height="177.05" x="2.26" y="40.15" fill="#68e1fd" rx="16.6"></rect><rect width="457.07" height="177.05" x="2.26" y="40.15" fill="url(#a)" rx="16.6"></rect><circle cx="64.76" cy="138.12" r="16.43" fill="#fff"></circle><rect width="2.67" height="7.61" x="64.76" y="107.7" fill="#fff" rx="1.33"></rect><rect width="2.67" height="7.61" x="64.76" y="160.92" fill="#fff" rx="1.33"></rect><rect width="2.67" height="7.61" x="67.7" y="169.31" fill="#fff" rx="1.33" transform="rotate(-45 -6.798 172.476)"></rect><rect width="2.67" height="7.61" x="105.34" y="206.94" fill="#fff" rx="1.33" transform="rotate(-45 30.83 210.11)"></rect><rect width="2.67" height="7.61" x="59.91" y="188.13" fill="#fff" rx="1.33" transform="rotate(-90 23.455 175.905)"></rect><rect width="2.67" height="7.61" x="113.13" y="188.13" fill="#fff" rx="1.33" transform="rotate(-90 76.675 175.905)"></rect><rect width="2.67" height="7.61" x="105.34" y="169.31" fill="#fff" rx="1.33" transform="rotate(45 160.751 119.935)"></rect><rect width="2.67" height="7.61" x="67.7" y="206.94" fill="#fff" rx="1.33" transform="rotate(45 123.123 157.57)"></rect><circle cx="159.59" cy="140.4" r="17.66" fill="url(#d)"></circle><rect width="2.87" height="8.18" x="159.59" y="107.7" fill="url(#e)" rx="1.43"></rect><rect width="2.87" height="8.18" x="159.59" y="164.92" fill="url(#f)" rx="1.43"></rect><rect width="2.87" height="8.18" x="161.12" y="169.9" fill="url(#g)" rx="1.43" transform="rotate(-45 86.715 173.352)"></rect><rect width="2.87" height="8.18" x="201.58" y="210.35" fill="url(#h)" rx="1.43" transform="rotate(-45 127.174 213.813)"></rect><rect width="2.87" height="8.18" x="152.75" y="190.13" fill="url(#i)" rx="1.43" transform="rotate(-90 116.39 178.19)"></rect><rect width="2.87" height="8.18" x="209.96" y="190.13" fill="url(#j)" rx="1.43" transform="rotate(-90 173.605 178.185)"></rect><rect width="2.87" height="8.18" x="201.58" y="169.9" fill="url(#k)" rx="1.43" transform="rotate(45 257.098 120.813)"></rect><rect width="2.87" height="8.18" x="161.12" y="210.35" fill="url(#l)" rx="1.43" transform="rotate(45 216.638 161.274)"></rect><path fill="url(#m)" d="M119.83 147.17H60a7.44 7.44 0 0 1-7.44-7.44v-3.44c0-4.11 3.33-7.44 5.81-7.44h59.81c5.74 0 9.07 3.33 9.07 7.44v3.44a7.44 7.44 0 0 1-7.42 7.44Z" transform="translate(-21.76 -53.82)"></path><path fill="url(#n)" d="M226.15 147.17h-59.81a7.44 7.44 0 0 1-7.44-7.44v-3.44c0-4.11 3.33-7.44 5.81-7.44h59.81c5.74 0 9.07 3.33 9.07 7.44v3.44a7.44 7.44 0 0 1-7.44 7.44Z" transform="translate(-21.76 -53.82)"></path><path fill="url(#o)" d="M332.48 147.17h-59.81a7.44 7.44 0 0 1-7.44-7.44v-3.44c0-4.11 3.33-7.44 5.81-7.44h59.81c5.74 0 9.07 3.33 9.07 7.44v3.44a7.44 7.44 0 0 1-7.44 7.44Z" transform="translate(-21.76 -53.82)"></path><path fill="url(#p)" d="M438.81 147.17H379a7.44 7.44 0 0 1-7.44-7.44v-3.44c0-4.11 3.33-7.44 5.8-7.44h59.82c5.74 0 9.07 3.33 9.07 7.44v3.44a7.44 7.44 0 0 1-7.44 7.44Z" transform="translate(-21.76 -53.82)"></path><path fill="#fff" d="M211.83 155.18a9.42 9.42 0 0 1-9.44 9.44h-55.81a9.44 9.44 0 1 1 0-18.87h12.53a9.07 9.07 0 0 1-.09-1.28 9.42 9.42 0 0 1 9.43-9.44v-1.72a9.33 9.33 0 0 1 9.33-9.33h5.75a8 8 0 0 1 8 8.05v3h2.1a9.45 9.45 0 0 1 9.35 10.75 9.42 9.42 0 0 1 8.85 9.4ZM315.34 155.18a9.42 9.42 0 0 1-9.44 9.44h-55.81a9.44 9.44 0 1 1 0-18.87h12.53a9.07 9.07 0 0 1-.09-1.28 9.42 9.42 0 0 1 9.43-9.44h1.69v-4.23a10.44 10.44 0 0 1 20.88 0v4.23h2.71a9.38 9.38 0 0 1 9.34 10.75 9.42 9.42 0 0 1 8.76 9.4ZM422.58 155.18a9.42 9.42 0 0 1-9.44 9.44h-55.81a9.44 9.44 0 1 1 0-18.87h12.52a9.07 9.07 0 0 1-.09-1.28 9.42 9.42 0 0 1 9.44-9.44h1.68v-4.23a10.44 10.44 0 0 1 20.88 0v4.23h2.68a9.44 9.44 0 0 1 9.44 9.44 8.17 8.17 0 0 1-.1 1.31 9.42 9.42 0 0 1 8.8 9.4Z"></path><rect width="2.8" height="6.72" x="389.34" y="221.77" fill="#fff" rx="1.4" transform="rotate(30 480.29 157.607)"></rect><rect width="2.8" height="6.72" x="399.5" y="221.77" fill="#fff" rx="1.4" transform="rotate(30 490.431 157.61)"></rect><rect width="2.8" height="6.72" x="409.65" y="221.77" fill="#fff" rx="1.4" transform="rotate(30 500.59 157.607)"></rect><rect width="2.8" height="6.72" x="419.81" y="221.77" fill="#fff" rx="1.4" transform="rotate(30 510.75 157.605)"></rect><rect width="2.8" height="6.72" x="385.38" y="233.02" fill="#fff" rx="1.4" transform="rotate(30 476.328 168.868)"></rect><rect width="2.8" height="6.72" x="395.54" y="233.02" fill="#fff" rx="1.4" transform="rotate(30 486.488 168.866)"></rect><rect width="2.8" height="6.72" x="405.69" y="233.02" fill="#fff" rx="1.4" transform="rotate(30 496.647 168.864)"></rect><rect width="2.8" height="6.72" x="415.85" y="233.02" fill="#fff" rx="1.4" transform="rotate(30 506.788 168.867)"></rect><path fill="#25233a" d="M406.13 191.56c-.32 4.59 1.11 7.59 3 11.77-.67-4.24 1.85-8.27 2.8-12.46.28-1.21 2.77-4.62 2.31-5.78-1-2.69-7.59-.91-8.11 6.47Z"></path><path fill="url(#b)" d="M357.22 454.91c.39 2.62 3.94 3.08 6.58 2.87l72.4-5.78a124.27 124.27 0 0 1 15.31-.6c3.36.14 6.72.55 10.09.36a28.48 28.48 0 0 0 13.4-4.26c1.46-.91 3-2.81 1.86-4.13a2.87 2.87 0 0 0-1.23-.74c-7-2.62-14.65-.16-22.06.54a43.9 43.9 0 0 1-18.76-2.17c-5.75-2.1-10.08-1.37-16.27-.51a340.5 340.5 0 0 0-39.27 7.82q-11.13 2.94-22.05 6.6Z" transform="translate(-21.76 -53.82)"></path><path fill="#25233a" d="M433.24 395.99s-.71.46 0 1.26 3.31 2.36 9.74 0 9.2-4.14 9.67-4.89-.4-2-.4-2Z"></path><path fill="#68e1fd" d="M381.76 367.87c-1.9-13.58 4.28-49.52 12.1-69.48 1.18-3 3.6-12 6.37-13.74 1.65-1 7.49.29 9.39-.05 7-1.23 13.34.84 20.33-.39 1.93-.34 4.24-.55 5.54.91a5.79 5.79 0 0 1 1.11 3q7 43.42 14.09 86.86c.32 2 .63 4-.08 5.9s-2.81 3.35-4.67 2.65c-1.56-.58-2.28-2.32-2.83-3.89-6.46-18.38-14.37-35.69-19.05-54.61-.95-3.8-2.51-9.54-6.42-9.38-2.71.11-5.18 2.09-6.93 4.16-13.25 15.68-20.27 28.39-20.29 59.16 0 2.57-2.36 5.83-4.66 4.68-1.07-.53-1.46-1.83-1.73-3a123.71 123.71 0 0 1-2.27-12.82"></path><path fill="url(#q)" d="M403.52 421.69c-1.9-13.58 4.28-49.52 12.1-69.48 1.18-3 3.6-12 6.37-13.74 1.65-1 7.49.29 9.39-.05 7-1.23 13.34.84 20.33-.39 1.93-.34 4.24-.55 5.54.91a5.79 5.79 0 0 1 1.11 3q7 43.42 14.09 86.86c.32 2 .63 4-.08 5.9s-2.81 3.35-4.67 2.65c-1.56-.58-2.28-2.32-2.83-3.89-6.46-18.38-14.37-35.69-19.05-54.61-.95-3.8-2.51-9.54-6.42-9.38-2.71.11-5.18 2.09-6.93 4.16-13.25 15.68-20.27 28.39-20.29 59.16 0 2.57-2.36 5.83-4.66 4.68-1.07-.53-1.46-1.83-1.73-3a123.71 123.71 0 0 1-2.27-12.82" transform="translate(-21.76 -53.82)"></path><path fill="#68e1fd" d="M452.48 297.73a3.51 3.51 0 0 1-.4 1.26 1.31 1.31 0 0 1-.27.31 2.37 2.37 0 0 1-1.32.44c-.91.12-2.64.38-4.38.61a3.11 3.11 0 0 1-3.44-3.83c3.46-14 3.79-29.56-3.56-41.66-1.35 20-2.41 26.84-2.54 33.19a3.39 3.39 0 0 1-.37 1.9v.06a3.17 3.17 0 0 1-1.36.89 29.76 29.76 0 0 1-11.43 2.07 85.19 85.19 0 0 1-15.28-1.79c-2.83-.51-5.84-1.11-7.9-3.12-3.07-3-2.93-7.86-2.71-12.13.5-10.05 3.1-35.39 2.81-35.05-3.45 4-12.79 11.42-17.37 11.87a6 6 0 0 1-4.32-.86 4.28 4.28 0 0 1-.79-.8c-1.27-1.65-3-6.87-3.46-8.9l-5.61-24.13a6.69 6.69 0 0 1-.21-1.66v-.41c.38-4.34 5.29-4.78 9-4.53q2.7 13.06 6.19 25.95c3-3.07 12.72-15.73 22.7-18.5a120.34 120.34 0 0 1 21.2-3.29 6.93 6.93 0 0 1 .89.05c6.81.79 19.57 11.4 24.31 32.65 3.68 16.27 2.58 33.02-.38 49.41Z"></path><path fill="url(#c)" d="M387.45 259.68a14.43 14.43 0 0 1-1.14-2.61 24.58 24.58 0 0 1-1.21-9.56 7 7 0 0 1 1-3.51c.13-.19.28-.37.41-.57s.29-.64.45-1a7.08 7.08 0 0 1 2.17-2.19 8.8 8.8 0 0 1 1.15-.76A8.33 8.33 0 0 1 392 239a1.07 1.07 0 0 1 .56 0 .9.9 0 0 1 .4.3 8 8 0 0 1 1.41 3.1 72.2 72.2 0 0 1 2.18 8.93c.07.48.39 1.13.84.94a.79.79 0 0 0 .34-.38l.66-1.16a1.59 1.59 0 0 1 .84-.85c.6-.16 1.18.46 1.23 1.08a3.56 3.56 0 0 1-.54 1.77 23.07 23.07 0 0 0-2.38 10.89 2.6 2.6 0 0 1-.14 1.18c-.48 1-2.17 1.19-3.12 1.5s-1.94.73-2.83 0a8.81 8.81 0 0 1-1.59-2.76c-.66-1.43-1.66-2.54-2.41-3.86Z" transform="translate(-21.76 -53.82)"></path><path fill="url(#r)" d="M460.7 361.6a4.8 4.8 0 0 0 4.49-1.24A14.18 14.18 0 0 1 464 367c-.16.35-.32.78-.09 1.09a1 1 0 0 0 .34.25 4.25 4.25 0 0 0 3.25 0 12.14 12.14 0 0 0 2.88-1.65 9.15 9.15 0 0 0 2.77-2.55 8.11 8.11 0 0 0 .75-5 35.13 35.13 0 0 0-.84-5 1.41 1.41 0 0 0-.25-.59c-.46-.57-1.36-.2-2 .1-2.22 1-4.48-.72-5.95 1.4a36.2 36.2 0 0 1-2.16 3.27c-.83.94-1.94 1.88-2 3.28Z" transform="translate(-21.76 -53.82)"></path><path fill="url(#s)" d="M403.65 440a36.06 36.06 0 0 1-4.19 2.52c-.68.42-1.42 1-1.3 1.84s1.19 1.24 2.07 1.36a45.9 45.9 0 0 0 5 .3 10.93 10.93 0 0 0 4.34-.49 3 3 0 0 0 1.38-1 4 4 0 0 0 .56-2.23 34.35 34.35 0 0 0-.29-5.82.49.49 0 0 0-.16-.37.5.5 0 0 0-.3-.08c-1.21-.05-3.64-.66-4.62.22-.45.41-.53 1.34-.82 1.86a9 9 0 0 1-1.67 1.89Z" transform="translate(-21.76 -53.82)"></path><path fill="url(#t)" d="M465.16 441c-1.2 1-2.63 1.76-3.85 2.76a2.23 2.23 0 0 0-1 1.48 1.62 1.62 0 0 0 1 1.41 4.39 4.39 0 0 0 1.76.35 27.92 27.92 0 0 0 7.18-.57 4 4 0 0 0 2.86-1.67 4.33 4.33 0 0 0 .11-2.67l-.6-3.4a2.94 2.94 0 0 0-.83-1.89c-.85-.66-3.44-.39-4.21.37-.44.42-.5 1.38-.79 1.92a6.69 6.69 0 0 1-1.63 1.91Z" transform="translate(-21.76 -53.82)"></path><path fill="url(#u)" d="M452 258.79c-1.36 4.73-.65 2.28-2.21 8.33-1.5 5.87-2.38 8.44-3.9 10-3.09 3.21-5 3.71-6.25 3.09-1.82-.89-2-4.23-1.92-4.66.35-1.83 2.1-5.19 1.5-6.94-.11-.32-.41-.35-.83-.31-1.15.09-3.22.68-5-2.59-3.15-5.72-3.16-12.11-3-18.46.15-5.63 3.69-9.64 9.11-10.35a10.61 10.61 0 0 1 10.39 5.21c2.36 4.22 3.42 11.96 2.11 16.68Z" transform="translate(-21.76 -53.82)"></path><path fill="#25233a" d="M414.41 180.01a6.12 6.12 0 0 0-3.29 2.81 3.73 3.73 0 0 0 .46 4.13c1.1 1.14 2.84 1.24 4.4 1.47a13.51 13.51 0 0 1 5.68 2.12 8.62 8.62 0 0 1 3.49 4.85c.77 3.09-.54 6.46.44 9.49a15 15 0 0 0 1.43-1.9 1.78 1.78 0 0 1 2.07-.72c1.7 1.88-.15 4.57-2.1 5.54a1 1 0 0 0-.51.4c-.12.26 0 .55.15.81.93 2.08-.33 4.85 1.1 6.62l2.32-3.95a34.55 34.55 0 0 0 3.06-6.11 11.69 11.69 0 0 0 .48-6.74l.76.17a5.78 5.78 0 0 0-.57-2.38 2.32 2.32 0 0 0 2 .57 8.59 8.59 0 0 1-1.39-1.9 2.24 2.24 0 0 0 1.66.42 7.42 7.42 0 0 1-1.81-3.53c-1.07-3.61-2.57-7.21-5.2-9.89-3.96-4.05-9.58-4.3-14.63-2.28Z"></path><path fill="url(#v)" d="M448.87 258.78a3.05 3.05 0 0 0 .13-.78 1.22 1.22 0 0 1 .32-.71.66.66 0 0 1 .74-.15.91.91 0 0 1 .35.81 2.8 2.8 0 0 1-1 2.22 1 1 0 0 1-.82.26.75.75 0 0 1-.5-.55c-.19-.83.51-.54.78-1.1Z" transform="translate(-21.76 -53.82)"></path><path fill="url(#w)" d="M444.24 271.48a42.74 42.74 0 0 0-4.65 8.74c-1.82-.89-2-4.23-1.92-4.66.35-1.83 2.1-5.19 1.5-6.94-.11-.32-.41-.35-.83-.31s4.63-1.05 5.66-3.91 3.38 2.6.24 7.08Z" transform="translate(-21.76 -53.82)"></path><path fill="#68e1fd" d="M427.09 214.18s-2.31 9-6.06 11-4.51-3.05-4.51-3.05l1-5.74-1 .55s-1.64 3.92-1.22 6.17 2.11 6.22 6.48 3.35 5.95-10.77 5.95-10.77Z"></path><path fill="url(#x)" d="M448.85 268s-2.31 9-6.06 11-4.51-3.05-4.51-3.05l1-5.74-1 .55s-1.64 3.92-1.22 6.17 2.11 6.22 6.48 3.35 5.95-10.77 5.95-10.77Z" transform="translate(-21.76 -53.82)"></path><path fill="url(#y)" d="m460.87 308.68-2.54 33.19s-.11.55-.42 2a3.17 3.17 0 0 1-1.36.89 29.76 29.76 0 0 1-11.43 2.07c11.2-3.57 10.38-44.48 10.38-44.48Z" transform="translate(-21.76 -53.82)"></path><path fill="#25233a" d="M372.74 389.97s7.32-3.73 9.15-3.77c0 0 0 .94 3.38.91s4.72-.91 4.72-.91a27.46 27.46 0 0 1 .56 4.33 15.06 15.06 0 0 1-.8 2.18l-19.13 2.84a1.45 1.45 0 0 1-1.66-1.39c-.04-1.28.58-3.04 3.78-4.19ZM442.71 387.11a10.43 10.43 0 0 0 6.4.83l2.49-1.74s.61 3.35.61 4.12a10.37 10.37 0 0 1-.61 2.42s-12.17 6.46-16.71 4.55c-7.03-2.96 7.82-10.18 7.82-10.18Z"></path><path fill="#25233a" d="m369.52 395.67 21.04-3.44.27 1.72-21.31 2.99v-1.27z"></path><path fill="url(#z)" d="M422.09 286.73v8c-3.45 4-12.79 11.42-17.37 11.87a6 6 0 0 1-4.32-.86 4.28 4.28 0 0 1-.79-.8c-1.27-1.65-3-6.87-3.46-8.9l-5.61-24.13a6.69 6.69 0 0 1-.21-1.66v-.41l1.33-1.84s9.2 30.95 12.39 32.26 18.04-13.53 18.04-13.53Z" transform="translate(-21.76 -53.82)"></path><path fill="url(#A)" d="M474.24 351.55a3.51 3.51 0 0 1-.4 1.26l-3 .8s1.39-34.41-2-51.3S448.07 273 448.07 273l2.3-3.48c6.81.79 19.57 11.4 24.31 32.65 3.62 16.24 2.52 32.99-.44 49.38Z" transform="translate(-21.76 -53.82)"></path></svg>