<svg xmlns="http://www.w3.org/2000/svg" enable-background="new 0 0 300 300" viewBox="0 0 300 300" id="temperature-checking"><path fill="#99daf3" d="M258.7,228.4c4-4.2,13.5-18.9,18-30.2c7.6-18.9,12.3-64-34-72.9c-52.1-10-37.1-55.8-82.7-60.9    c-51.6-5.8-52.9,25.6-76.4,35.3s-55,0.3-63.6,55.9c-8,51.4,19.7,67.9,32.6,72.8H258.7z"></path><path fill="#668fca" d="M48.5,208.6l209.9-0.1l-3.3-17.8c-1.5-8-8-14.1-16-15c-13.4-1.6-31.8-3.8-31.8-3.8l-24.5-21.3      c-3-2.6-6.9-4.1-11-4.1l-67.9,0c-8.4,0-16.2,4.3-20.7,11.4l-8.9,14.1l-7.5,0.4c-9.3,0.5-17,7.4-18.6,16.6l-2.8,16      C45.1,206.8,46.6,208.6,48.5,208.6z"></path><polygon fill="#d4e9f1" points="176.8 149.8 182 149.8 188.9 155.8 207.3 171.9 202.7 171.9"></polygon><polygon fill="#9bd5ee" points="181.9 149.8 179.5 149.8 203.5 171.9 205.5 171.9"></polygon><path fill="#3e65a8" d="M89.1 191.9H42.6c-1.5 0-2.7 1.2-2.7 2.7v7.7c0 3.4 2.8 6.2 6.2 6.2h43V191.9zM210.2 208.5h46.4c1.5 0 2.7-1 2.7-2.2v-6.1c0-2.7-2.8-4.9-6.2-4.9h-43V208.5z"></path><path fill="#3d3d3d" d="M93.4 185.4h5.3c.5 0 1-.4 1-1v-.2c0-.5-.4-1-1-1h-5.3c-.5 0-1 .4-1 1v.2C92.4 184.9 92.8 185.4 93.4 185.4zM146.8 185.4h5.3c.5 0 1-.4 1-1v-.2c0-.5-.4-1-1-1h-5.3c-.5 0-1 .4-1 1v.2C145.9 184.9 146.3 185.4 146.8 185.4z"></path><path fill="#d4e9f1" d="M88.1,171.9h106l-20.4-19.4c-1.8-1.7-4.1-2.6-6.5-2.6h-59.7c-3.2,0-6.2,1.6-7.9,4.3L88.1,171.9z"></path><path fill="#4d1e33" d="M164.8,152c0.2,0,1.2,0.8,1.2,1.9c-0.1,1.5-2,2.3-2.8,4.4c-0.4,1.1-1.1,1.9-1.7,2.3           c-0.5,0.5-1.2,0.7-1.9,0.7l-0.2,0c-1.6,0-3-1.2-3.1-2.8l-0.2-3.3c-0.1-1.8,1.3-3.3,3-3.3L164.8,152z"></path><path fill="#f8ad9c" d="M165.1,155.7c-0.1-0.1-0.2-0.3-0.2-0.4c0,0,0,0,0,0c0,0,0,0,0,0c-0.8-1.4-2.7-1.6-3.8-0.4                 c-0.1,0.1-0.2,0.3-0.3,0.5c-0.5,1.2-1.5,2-2.7,2.6c0,0,0,0-0.1,0c-0.2-0.1-0.5-0.3-0.9-0.3c-0.7,0-1.5,0.6-1.2,1.7                 c0.3,1.1,1.8,1,1.8,1l-0.7,7.9c2.2,0.4,4.3,0.8,6.5,1.1l-1.1-6.3c0,0,1.2-0.3,2.4-1.5c0.1-0.1,0.2-0.3,0.4-0.5                 C166.2,159.5,166.2,157.4,165.1,155.7z"></path><ellipse cx="163.3" cy="156.3" fill="#4d1e33" rx="1.1" ry=".2" transform="rotate(-10.907 163.279 156.332)"></ellipse><path fill="#d08487" d="M157.6,158.9c-0.1-0.5-0.8-0.6-0.8-0.6c0,0,0,0,0,0c0,0,0,0,0,0             C156.8,158.3,157.4,158.4,157.6,158.9c-0.1,0.1,0,0.1,0,0.2c-0.1,0.1-0.5,0.2-0.6,0.1c-0.2-0.1-0.2-0.2-0.2-0.2             c0,0,0,0,0,0c0,0,0,0,0,0c0,0,0,0.2,0.2,0.3c0,0,0.1,0,0.1,0c0.2,0,0.5-0.1,0.5-0.1c0,0.4-0.1,0.7-0.1,0.7c0,0,0,0,0,0             c0,0,0,0,0,0c0,0,0,0,0,0C157.6,159.8,157.7,159.4,157.6,158.9z"></path><path fill="#fff" d="M162.8,157.5c0,0,0.3,0.3,0.8,0.2c0.5-0.1,0.6-0.3,0.7-0.3c0.2,0-0.1-0.3-0.4-0.4            C163,157,162.8,157.5,162.8,157.5z"></path><path fill="#2b1d30" d="M164.3,157.4L164.3,157.4c0.1,0,0.1-0.1,0-0.1c-0.1-0.1-0.4-0.2-0.8-0.2c-0.7,0-0.9,0.4-0.9,0.4            l0.1,0c0,0,0.3-0.3,0.7-0.4C163.9,157.1,164.3,157.4,164.3,157.4z"></path><path fill="#2b1d30" d="M163.1,157.4c0,0.2,0.2,0.3,0.5,0.3c0.2,0,0.4-0.2,0.4-0.4c0-0.2-0.2-0.2-0.5-0.2            C163.3,157.1,163.1,157.2,163.1,157.4z"></path><circle cx="163.7" cy="157.4" r=".1" fill="#fff" transform="matrix(.998 -.06347 .06347 .998 -9.658 10.71)"></circle><path fill="#4d1e33" d="M165.8,159.3l-4.8,0.4c-0.8,0.1-1.5-0.4-1.6-1.1l-0.2-1.7l-0.7,0.1l0.2,2.7c0.2,2.1,1.1,3.6,3.5,3.4        l0.3-0.1C164.4,162.5,165.6,161,165.8,159.3L165.8,159.3z"></path><ellipse cx="164.2" cy="160.9" fill="#fff" rx=".5" ry=".9" transform="rotate(-88.715 164.24 160.854) scale(.99995)"></ellipse><ellipse cx="165.8" cy="158.6" fill="#f8ad9c" rx=".7" ry=".4" transform="matrix(.9958 -.09118 .09118 .9958 -13.772 15.777)"></ellipse><path fill="#e21e26" d="M168.9,171.5L168,170c-3.9-6.5-13.6-5.4-16.1,1.5H168.9z"></path><rect width=".8" height="22" x="141.5" y="149.8" fill="#668fca" transform="rotate(-180 141.86 160.847)"></rect><polygon fill="#9bd5ee" points="146.8 165.3 143.1 171.9 150.3 171.9 153.7 165.3"></polygon><polygon fill="#9bd5ee" points="174.7 165.3 171.7 171.9 176.4 171.9 179.5 165.3"></polygon><polygon fill="#9bd5ee" points="122.2 149.8 116 149.8 103.4 171.9 110.6 171.9"></polygon><polygon fill="#9bd5ee" points="131 149.8 128.2 149.8 116.8 171.9 119.8 171.9"></polygon><path fill="none" stroke="#4f7099" stroke-linecap="round" stroke-linejoin="round" stroke-miterlimit="10" stroke-width=".646" d="M141.9,171.9v36.6h-39.8l-0.2-1.4c-0.9-7.5-6.5-13.6-13.8-15.2h0v-20.1h104.6c2.1,0,3.9,1.7,3.9,3.9v32.8      h-54.8"></path><path fill="#345691" d="M61 208.5c.6-6.6 9.5-16.6 20.3-16.6 10.8 0 18.3 9.4 20.3 16.6H61zM238.2 208.5c-.6-6.6-9.5-16.6-20.3-16.6-10.8 0-18.3 9.4-20.3 16.6H238.2z"></path><circle cx="81.3" cy="211.5" r="16.8"></circle><circle cx="81.3" cy="211.6" r="8.5" fill="#3c353d"></circle><circle cx="81.3" cy="211.4" r="6" fill="#504850"></circle><path fill="#2e3030" d="M80.7,198.3c-6.5,0.3-12.1,5.1-12.9,11.6c-0.2,1.4-2.4,1.4-2.2,0c0.9-7.8,7.3-13.5,15.1-13.8          C82.2,196,82.2,198.3,80.7,198.3L80.7,198.3z"></path><circle cx="218.1" cy="211.6" r="16.8"></circle><circle cx="218.1" cy="211.7" r="8.5" fill="#3c353d"></circle><circle cx="218.1" cy="211.5" r="6" fill="#504850"></circle><path fill="#2e3030" d="M217.5,198.4c-6.5,0.3-12.1,5.1-12.9,11.6c-0.2,1.4-2.4,1.4-2.2,0c0.9-7.8,7.3-13.5,15.1-13.8          C219,196.1,219,198.4,217.5,198.4L217.5,198.4z"></path><line x1="141.9" x2="189.2" y1="165.3" y2="165.3" fill="none" stroke="#668fca" stroke-miterlimit="10" stroke-width=".323"></line><g><path fill="#fff" d="M191.8 97.5c0-1.8-1.4-3.2-3.2-3.2-.2 0-.5 0-.7.1-.3-1.7-1.7-2.9-3.4-2.9-1.5 0-2.8 1-3.3 2.3-.4-.3-.9-.5-1.5-.5-1.3 0-2.4 1.1-2.4 2.4 0 .1 0 .3 0 .4-.2-.1-.5-.1-.7-.1-1.3 0-2.4 1.1-2.4 2.4 0 1.3 1.1 2.4 2.4 2.4.1 0 .1 0 .2 0v0h11.3c.1 0 .3 0 .4 0 .1 0 .3 0 .4 0h0v0C190.6 100.5 191.8 99.1 191.8 97.5zM173.1 82.1c0-2.5-2-4.5-4.5-4.5-.3 0-.6 0-1 .1-.4-2.3-2.4-4.1-4.8-4.1-2.1 0-3.9 1.4-4.6 3.3-.6-.5-1.3-.7-2.1-.7-1.8 0-3.3 1.5-3.3 3.3 0 .2 0 .4.1.6-.3-.1-.6-.1-1-.1-1.9 0-3.4 1.5-3.4 3.3 0 1.9 1.5 3.4 3.4 3.4.1 0 .2 0 .3 0v0H168c.2 0 .4 0 .6 0 .2 0 .4 0 .6 0h0v0C171.4 86.3 173.1 84.4 173.1 82.1z"></path></g><g><polygon fill="#e21e26" points="174.5 214.3 160.4 214.3 162.1 206.9 172.7 206.9"></polygon><polygon fill="#e21e26" points="176.6 223.2 158.2 223.2 159.7 217 175.1 217"></polygon><polygon fill="#e21e26" points="172 204.2 162.8 204.2 164.7 196.3 170.2 196.3"></polygon><path fill="#e21e26" d="M156.4,227.1L156.4,227.1c0-0.7,0.5-1.2,1.2-1.2l0,0l19.6,0l0,0l0,0c0.7,0,1.2,0.5,1.2,1.2v0h0.3     c0.7,0,1.2,0.5,1.2,1.2l0,0h-25l0,0c0-0.7,0.5-1.2,1.2-1.2H156.4z"></path><polygon fill="#fff" points="175.1 217 159.7 217 159.7 217 160.4 214.3 160.4 214.3 174.5 214.3"></polygon><polygon fill="#fff" points="164.7 196.3 164.7 196.3 165.3 193.6 167.2 193.6 167.6 193.6 169.5 193.6 170.2 196.3"></polygon><polygon fill="#fff" points="172.7 206.9 162.1 206.9 162.1 206.9 162.8 204.2 162.8 204.2 172 204.2"></polygon><polygon fill="#fff" points="158.2 223.2 158.2 223.2 176.6 223.2 176.6 223.2 177.2 225.9 177.2 225.9 157.6 225.9"></polygon></g><g><polygon fill="#e21e26" points="85.2 214.3 71.1 214.3 72.8 206.9 83.4 206.9"></polygon><polygon fill="#e21e26" points="87.3 223.2 69 223.2 70.4 217 85.8 217"></polygon><polygon fill="#e21e26" points="82.8 204.2 73.5 204.2 75.4 196.3 80.9 196.3"></polygon><path fill="#e21e26" d="M67.1,227.1L67.1,227.1c0-0.7,0.5-1.2,1.2-1.2l0,0l19.6,0l0,0l0,0c0.7,0,1.2,0.5,1.2,1.2v0h0.3     c0.7,0,1.2,0.5,1.2,1.2l0,0h-25l0,0c0-0.7,0.5-1.2,1.2-1.2H67.1z"></path><polygon fill="#fff" points="85.8 217 70.4 217 70.4 217 71.1 214.3 71.1 214.3 85.2 214.3"></polygon><polygon fill="#fff" points="75.4 196.3 75.4 196.3 76 193.6 77.9 193.6 78.3 193.6 80.2 193.6 80.9 196.3"></polygon><polygon fill="#fff" points="83.4 206.9 72.8 206.9 72.8 206.9 73.5 204.2 73.5 204.2 82.8 204.2"></polygon><polygon fill="#fff" points="69 223.2 69 223.2 87.3 223.2 87.3 223.2 87.9 225.9 87.9 225.9 68.3 225.9"></polygon></g><g><path fill="#2178bd" d="M205.7,162.3L205,165c0,0-3.4,4.5-2.8,6.1c0.5,1.7,2-1.8,2-1.8s1.1,3,0.8,3.7c-0.3,0.7-1.2,2.7,0.2,2.7       c1.4,0,4.2-1.3,3.8-4.4s-0.4-4.5-0.4-4.5l1.3-3l-0.8-0.6C208.2,162.5,206.9,162.1,205.7,162.3L205.7,162.3z"></path><path fill="#f6aa1b" d="M229.7,162.6l10.5,65.8h-14.8l-6.1-45.9l-0.8,45.9h-14.1c0,0,2.5-40.6,2.5-47.1c0-3.5,1.7-11.5,2-17     l-5.6,0.2l3.6-18.5l1.2-6.9c0.5-1.6,1.6-2.9,3-3.7l3.5-1.8c0,0-7.5-12.7,1.1-18.2c8.1-5.2,13.6,3.4,13.5,8.4     c-0.1,4-2.1,8.7-2.1,8.7l5.5,3.9c1.4,1,2.5,2.3,3.2,3.8l6.3,13.7c2.1,4.6-1.6,9.8-6.6,9.3L229.7,162.6z"></path><line x1="211.1" x2="208.9" y1="148" y2="164" fill="none" stroke="#000425" stroke-linecap="round" stroke-linejoin="round" stroke-miterlimit="10" stroke-width=".646"></line><ellipse cx="210.5" cy="154.7" fill="#2178bd" rx="1.3" ry="1"></ellipse><path fill="#fff" d="M201.7,147.9l12.1,10l0.2-0.2l-12.2-10c0-0.2-0.2-0.4-0.4-0.7c-0.3-0.3-0.7-0.4-0.8-0.3     c-0.1,0.1,0.1,0.5,0.4,0.8C201.3,147.8,201.6,147.9,201.7,147.9z"></path><path fill="none" stroke="#000425" stroke-linecap="round" stroke-linejoin="round" stroke-miterlimit="10" stroke-width=".646" d="M227.9 148l2.1 5.2c-1.4.1-12 .2-12 .2v6.8l11.1 2.6M226.9 132.7l-.3.3c-3.2 2.9-8.1 3.1-11.6.7l0 0"></path><path fill="none" stroke="#000425" stroke-linecap="round" stroke-linejoin="round" stroke-miterlimit="10" stroke-width=".646" d="M218.3,135.1c-0.9,4.2-0.9,8.7,0.1,12.9l0,0"></path><path fill="#f6aa1b" d="M207.1 215.5c0 0-3.8 1.3-2.5 3.4s.3 2-.4 3c-.8 1.1.1.9.6 2s-1.7.5-1 2.6c.7 2.2 2.4.5 2.4.5L207.1 215.5zM232.7 183.9c1.1 0 2 1.1 1.7 2.2 0 0 0 0 0 0-1 3.2-1.9 4.4 1.5 12.5 3.5 8.1-3.7 12.2-3.7 12.2l-4.1-26.7C229.7 184 231.2 184 232.7 183.9z"></path><path fill="#2178bd" d="M218.6,152.7l-3.1,1.1l-5.3,0.5c0,0-3.1,2.3-4,2.1c-0.9-0.2-3.4-0.5-2.9,1.1c0.5,1.6,2.8,4.3,6.3,3       c3.4-1.3,5-1.9,5-1.9l3.5,2.2l1.2-1.9c0.6-1.4,0.3-4.1-0.3-5.5L218.6,152.7z"></path><path fill="#246592" d="M208.9 156.7C208.9 156.7 208.9 156.7 208.9 156.7l-.3.2c-.7.4-1.5.7-2.3.7l-2.6.1c0 0-.1 0-.1-.1 0 0 0-.1.1-.1l2.6-.1c.8 0 1.5-.3 2.2-.7l.3-.2C208.9 156.5 208.9 156.5 208.9 156.7 209 156.6 208.9 156.6 208.9 156.7zM209.5 157.8C209.5 157.8 209.5 157.8 209.5 157.8l-.3.2c-.7.4-1.5.7-2.3.7l-2.6.1c0 0-.1 0-.1-.1 0 0 0-.1.1-.1l2.6-.1c.8 0 1.5-.3 2.2-.7l.3-.2C209.5 157.7 209.5 157.7 209.5 157.8 209.5 157.8 209.5 157.8 209.5 157.8zM210.2 158.9C210.2 158.9 210.2 158.9 210.2 158.9l-.3.2c-.7.4-1.5.7-2.3.7l-2.2.1c0 0-.1 0-.1-.1 0 0 0-.1.1-.1l2.2-.1c.8 0 1.5-.3 2.2-.7l.3-.2C210.1 158.8 210.2 158.8 210.2 158.9 210.2 158.9 210.2 158.9 210.2 158.9z"></path><path fill="#cc8067" d="M222.3,118.6h-4.6c-1.8,0-3.2,1.5-3.2,3.2c0,1.3,0,2.6,0,3.1c0,0.6,0.1,1.2,0.4,1.7            c0.8,1.3,2.5,3.7,4.8,3.7c2.6-0.1,4.5-2.6,5.3-4.1c0.3-0.6,0.5-1.2,0.4-1.9l-0.1-2.8C225.3,119.9,223.9,118.6,222.3,118.6            z"></path><path fill="#fff" d="M223.8,122.7c0,0-0.3,0.4-1.1,0.4c-0.7,0-0.8-0.3-1.1-0.3c-0.2,0,0.1-0.4,0.5-0.5         C223.3,122,223.8,122.7,223.8,122.7z"></path><path fill="#2b1d30" d="M221.6,122.7L221.6,122.7c-0.1,0-0.1-0.1-0.1-0.2c0.2-0.1,0.5-0.3,1-0.4c1-0.1,1.4,0.5,1.4,0.5l-0.1,0         c0,0-0.4-0.4-1-0.4S221.6,122.7,221.6,122.7z"></path><path fill="#2b1d30" d="M223.3,122.6c0,0.3-0.3,0.5-0.6,0.5c-0.3,0-0.6-0.2-0.6-0.5c0-0.3,0.3-0.3,0.6-0.4         C223,122.2,223.3,122.3,223.3,122.6z"></path><circle cx="222.4" cy="122.6" r=".1" fill="#fff" transform="matrix(.9998 -.0219 .0219 .9998 -2.632 4.9)"></circle><path fill="#fff" d="M216.2,122.7c0,0,0.3,0.4,1.1,0.4c0.7,0,0.8-0.3,1.1-0.3c0.2,0-0.1-0.4-0.5-0.5         C216.7,122,216.2,122.7,216.2,122.7z"></path><path fill="#2b1d30" d="M218.4,122.7L218.4,122.7c0.1,0,0.1-0.1,0.1-0.2c-0.2-0.1-0.5-0.3-1-0.4c-1-0.1-1.4,0.5-1.4,0.5l0.1,0         c0,0,0.4-0.4,1-0.4S218.4,122.7,218.4,122.7z"></path><path fill="#2b1d30" d="M216.7,122.6c0,0.3,0.3,0.5,0.6,0.5c0.3,0,0.6-0.2,0.6-0.5c0-0.3-0.3-0.3-0.6-0.4         C217,122.2,216.7,122.3,216.7,122.6z"></path><circle cx="217.6" cy="122.6" r=".1" fill="#fff" transform="rotate(-88.744 217.6 122.603) scale(1.00004)"></circle><g><path fill="#533d62" d="M219.9,127.1c0,0,0.1,0,0.1,0l5.4-3.6c0.1-0.1,0.1-0.2,0.1-0.3c-0.1-0.1-0.2-0.1-0.3-0.1l-5.3,3.5        l-5.4-3.5c-0.1-0.1-0.2,0-0.3,0.1c-0.1,0.1,0,0.2,0.1,0.3L219.9,127.1C219.9,127.1,219.9,127.1,219.9,127.1z"></path></g><g><path fill="#533d62" d="M216,125.4c0.3,0,0.6,0.1,0.9,0.1l1.9-1.6c0.8-0.6,1.9-0.6,2.5,0.2l2,2.2l1.6,0.3         c0.4,0.1,0.6,0.4,0.6,0.8l-0.5,3c-0.1,0.4-0.4,0.6-0.8,0.6l-1.2-0.2l-0.6,0.3c-1.4,0.8-3,0.9-4.5,0.3         c-0.6,0.5-1.3,0.8-2.1,0.8c-1.8,0-3.2-1.5-3.2-3.4C212.8,126.9,214.2,125.4,216,125.4z"></path><path fill="#36233a" d="M216.5 129.2c0 0 .1 0 .1 0l1.9-1.4c.7-.5 1-1.5.8-2.4l-.4-1.2c0-.1-.1-.2-.3-.1-.1 0-.2.2-.1.3l.4 1.2c.2.7 0 1.5-.6 1.9l-1.9 1.4c-.1.1-.1.2-.1.3C216.4 129.1 216.5 129.2 216.5 129.2zM223.3 129.2c.1 0 .1 0 .2-.1.1-.1 0-.2-.1-.3l-1.9-1.4c-.6-.4-.8-1.2-.6-1.9l.4-1.2c0-.1 0-.2-.1-.3-.1 0-.2 0-.3.1l-.4 1.2c-.3.9 0 1.8.8 2.4l1.9 1.4C223.3 129.1 223.3 129.2 223.3 129.2z"></path></g><g><path fill="#35489d" d="M225.2,119.8h-10.6c-0.3,0-0.5,0.3-0.5,0.8v3.7c0,0.4,0.2,0.8,0.5,0.8h4.3c0.3,0,0.5-0.3,0.5-0.8l0-0.2        c0-0.3,0.2-0.6,0.4-0.6l0.3,0c0.2,0,0.4,0.3,0.4,0.6l0,0.2c0,0.4,0.2,0.8,0.5,0.8h4.1c0.3,0,0.5-0.3,0.5-0.8v-3.7        C225.7,120.2,225.5,119.8,225.2,119.8z M225.2,123.9c0,0.3-0.2,0.6-0.4,0.6h-3.3c-0.2,0-0.4-0.3-0.4-0.6        c0-0.3-0.2-0.6-0.4-0.6h-1.5c-0.2,0-0.4,0.3-0.4,0.6c0,0.3-0.2,0.6-0.4,0.6H215c-0.2,0-0.4-0.3-0.4-0.6V121        c0-0.3,0.2-0.6,0.4-0.6h4.9h0.1h4.7c0.2,0,0.4,0.3,0.4,0.6V123.9z"></path><path fill="#fff" d="M224.7,120.4H220h-0.1H215c-0.2,0-0.4,0.3-0.4,0.6v2.9c0,0.3,0.2,0.6,0.4,0.6h3.3        c0.2,0,0.4-0.3,0.4-0.6c0-0.3,0.2-0.6,0.4-0.6h1.5c0.2,0,0.4,0.3,0.4,0.6c0,0.3,0.2,0.6,0.4,0.6h3.3c0.2,0,0.4-0.3,0.4-0.6        V121C225.2,120.7,225,120.4,224.7,120.4z" opacity=".41"></path><polygon fill="#fff" points="223.2 120.4 224 120.4 222.1 124.5 221.3 124.5" opacity=".41"></polygon><polygon fill="#fff" points="217.8 120.4 219.4 120.4 217.7 124.5 216.2 124.5" opacity=".41"></polygon><polygon fill="#fff" points="216.7 120.4 217.1 120.4 215.6 124.5 215.3 124.5" opacity=".41"></polygon></g></g><line x1="278.5" x2="21.5" y1="228.4" y2="228.4" fill="none" stroke="#000425" stroke-linecap="round" stroke-linejoin="round" stroke-miterlimit="10" stroke-width=".646"></line></svg>